<svg width="124" height="144" viewBox="0 0 124 144" fill="none" xmlns="http://www.w3.org/2000/svg">
<path d="M23.2532 98.9852L0 122.059C13.0453 135.394 31.2395 143.672 51.3161 143.672C90.9296 143.672 123.152 111.435 123.152 71.8358C123.152 32.2223 90.9296 0 51.3161 0C31.2395 0 13.0522 8.27703 0 21.6061L23.2532 44.6793C30.3675 37.3366 40.3194 32.7759 51.3093 32.7759C72.8531 32.7759 90.376 50.2989 90.376 71.8427C90.376 93.3865 72.8531 110.909 51.3093 110.909C40.2986 110.909 30.3468 106.335 23.2532 98.9922V98.9852Z" fill="#3BD77D"/>
<path d="M0 21.606V122.058L23.2532 98.9851L50.6379 71.8356L23.2532 44.6792L0 21.606Z" fill="#20498A"/>
</svg>
