<svg width="178" height="178" viewBox="0 0 178 178" fill="none" xmlns="http://www.w3.org/2000/svg">
<circle cx="89" cy="89" r="89" fill="#3BD77D"/>
<path d="M66.211 109.265L49 126.343C58.6556 136.213 72.1221 142.34 86.982 142.34C116.302 142.34 140.152 118.48 140.152 89.1698C140.152 59.8496 116.302 36 86.982 36C72.1221 36 58.6607 42.1263 49 51.9919L66.211 69.0697C71.4768 63.635 78.8427 60.2593 86.9769 60.2593C102.923 60.2593 115.892 73.2291 115.892 89.1749C115.892 105.121 102.923 118.09 86.9769 118.09C78.8273 118.09 71.4614 114.705 66.211 109.27V109.265Z" fill="white"/>
<path d="M49.0001 51.9917V126.342L66.2111 109.264L86.4801 89.1696L66.2111 69.0695L49.0001 51.9917Z" fill="#20498A"/>
</svg>
