<svg width="276" height="50" viewBox="0 0 276 50" fill="none" xmlns="http://www.w3.org/2000/svg">
<path d="M4.04884 4.18115H15.1751L26.4369 33.4465H26.5725L37.8328 4.18115H49.0268L53.0724 48.5521H42.755L41.4054 33.4465L40.8662 19.6904L40.7306 19.1512L31.2219 47.2703H21.8489L12.3402 19.6226L12.2046 19.0834L11.6654 33.4465L10.2496 48.5521H0L4.04561 4.18115H4.04884Z" fill="#FFFFFF"/>
<path d="M87.2616 44.9103C85.171 46.7991 79.6418 49.2933 73.5734 49.2933C63.1897 49.2933 56.1753 41.8091 56.1753 32.3004C56.1753 22.7918 63.3915 15.2397 73.5734 15.2397C84.3622 15.2397 90.8358 22.6578 90.8358 32.2326C90.8358 33.2448 90.7002 34.525 90.4984 35.5372L66.4249 35.4694C67.5711 39.1776 70.808 40.9986 74.5162 40.9986C79.1688 40.9986 81.529 39.0436 82.4056 38.2332L87.26 44.9087L87.2616 44.9103ZM73.9092 23.3988C69.9975 23.3988 67.0319 25.6234 66.1553 29.6028H80.8558C80.7202 26.0286 78.226 23.3988 73.9108 23.3988H73.9092Z" fill="#FFFFFF"/>
<path d="M117.134 15.7788H127.046V48.5505H118.618L118.146 43.8979C115.516 47.0669 111.807 49.2253 107.424 49.2253C98.6575 49.2253 95.0833 42.9535 95.0833 34.2553V15.7788H104.928V32.7039C104.928 37.2887 106.142 40.1881 110.593 40.1881C114.436 40.1881 117.134 36.8835 117.134 32.7039V15.7788Z" fill="#FFFFFF"/>
<path d="M127.116 4.18115H138.174L148.288 34.9301H148.424L158.472 4.18115H169.53L153.751 48.5521H142.962L127.116 4.18115Z" fill="#FFFFFF"/>
<path d="M168.048 20.6349C169.532 19.0157 174.993 15.0378 182.681 15.0378C190.772 15.0378 197.92 18.8817 197.92 28.5243V48.5522H189.492L188.817 44.5066C186.592 47.4738 183.422 49.227 178.703 49.227C171.758 49.227 167.712 44.844 167.712 39.3148C167.712 33.7855 172.365 28.8633 183.559 28.8633H188.549V28.4581C188.549 25.2213 186.526 23.3325 182.075 23.3325C178.097 23.3325 174.455 25.8267 173.309 26.9745L168.05 20.6365L168.048 20.6349ZM188.547 34.3909H184.029C179.376 34.3909 177.691 36.4137 177.691 38.6399C177.691 40.3253 179.039 42.1464 181.94 42.1464C184.841 42.1464 188.547 39.6522 188.547 35.0657V34.3909Z" fill="#FFFFFF"/>
<path d="M213.901 48.5506H204.057V0H213.901V48.5506Z" fill="#FFFFFF"/>
<path d="M264.812 48.5506H254.967V15.7788H263.33L263.801 20.5671C265.824 17.3981 268.791 15.0378 272.567 15.0378C273.646 15.0378 274.792 15.2396 276.006 15.6448L275.87 25.0179C274.454 24.4787 273.039 24.2091 271.689 24.2091C267.913 24.2091 264.81 26.4337 264.81 31.6271V48.5522L264.812 48.5506Z" fill="#FFFFFF"/>
<path d="M226.256 38.1267L220.831 43.509C223.875 46.6199 228.119 48.5507 232.802 48.5507C242.043 48.5507 249.559 41.031 249.559 31.7935C249.559 22.5529 242.043 15.0364 232.802 15.0364C228.119 15.0364 223.876 16.9672 220.831 20.0764L226.256 25.4588C227.915 23.7459 230.237 22.682 232.8 22.682C237.826 22.682 241.913 26.7696 241.913 31.7952C241.913 36.8207 237.826 40.9083 232.8 40.9083C230.232 40.9083 227.91 39.8412 226.256 38.1283V38.1267Z" fill="#3BD77D"/>
<path d="M220.831 20.0764V43.509L226.256 38.1267L232.644 31.7935L226.256 25.4587L220.831 20.0764Z" fill="#FFFFFF"/>
</svg>
