<svg width="34" height="34" viewBox="0 0 34 34" fill="none" xmlns="http://www.w3.org/2000/svg">
<path d="M26.0311 6.25879C24.8931 6.25879 24.0396 7.11227 24.0396 8.25023C24.0396 9.3882 24.8931 10.2417 26.0311 10.2417C27.1691 10.2417 28.0225 9.3882 28.0225 8.25023C28.0225 7.11227 27.1691 6.25879 26.0311 6.25879Z" fill="#EEF6FF"/>
<path d="M17.0695 8.81885C12.3754 8.81885 8.67704 12.6595 8.67704 17.2114C8.67704 21.7632 12.5177 25.6039 17.0695 25.6039C21.6214 25.6039 25.462 21.7632 25.462 17.2114C25.462 12.6595 21.7637 8.81885 17.0695 8.81885ZM17.0695 22.6167C14.0824 22.6167 11.6642 20.1985 11.6642 17.2114C11.6642 14.2242 14.0824 11.806 17.0695 11.806C20.0567 11.806 22.4749 14.2242 22.4749 17.2114C22.4749 20.1985 20.0567 22.6167 17.0695 22.6167Z" fill="#EEF6FF"/>
<path d="M23.8973 0H10.3839C4.55187 0 0 4.55187 0 10.2417V23.7551C0 29.4449 4.55187 33.9968 10.2417 33.9968H23.7551C29.4449 33.9968 33.9968 29.4449 33.9968 23.7551V10.2417C34.139 4.55187 29.5871 0 23.8973 0ZM30.8674 23.8973C30.8674 27.7379 27.7379 31.0096 23.7551 31.0096H10.2417C6.40106 31.0096 3.12941 27.8802 3.12941 23.8973V10.3839C3.12941 6.54331 6.25882 3.27166 10.2417 3.27166H23.7551C27.5957 3.27166 30.8674 6.40106 30.8674 10.3839V23.8973Z" fill="#EEF6FF"/>
</svg>
