<svg width="26" height="35" viewBox="0 0 26 35" fill="none" xmlns="http://www.w3.org/2000/svg">
<path d="M13 0C5.83171 0 0 5.83406 0 13.0052C0 23.6897 11.706 34.1221 12.2045 34.5611C12.4318 34.7613 12.7158 34.8615 13 34.8615C13.2842 34.8615 13.5682 34.7614 13.7956 34.5611C14.2939 34.1222 26 23.6898 26 13.0052C26 5.83406 20.1683 0 13 0ZM13 32.0078C10.4119 29.4999 2.40743 21.0882 2.40743 13.0052C2.40743 7.16161 7.15926 2.40743 13 2.40743C18.8408 2.40743 23.5926 7.16161 23.5926 13.0052C23.5926 21.0881 15.5881 29.4998 13 32.0078Z" fill="#EEF6FF"/>
<path d="M13 6.94678C9.68136 6.94678 6.98154 9.66456 6.98154 13.0051C6.98154 16.3459 9.68136 19.0635 13 19.0635C16.3186 19.0635 19.0185 16.3459 19.0185 13.0051C19.0185 9.66456 16.3186 6.94678 13 6.94678ZM13 16.6561C11.0088 16.6561 9.38885 15.0183 9.38885 13.0051C9.38885 10.9921 11.0088 9.35421 13 9.35421C14.9912 9.35421 16.6111 10.992 16.6111 13.0051C16.6111 15.0183 14.9912 16.6561 13 16.6561Z" fill="#EEF6FF"/>
</svg>
