<svg width="35" height="26" viewBox="0 0 35 26" fill="none" xmlns="http://www.w3.org/2000/svg">
<path fill-rule="evenodd" clip-rule="evenodd" d="M32.5 21.6667C32.5 21.8866 32.4577 22.0946 32.3971 22.2928L22.75 11.9167L32.5 4.33333V21.6667ZM3.85233 23.7748L13.6283 13.3575L17.3333 16.1579L20.878 13.3402L30.8143 23.7748C30.6594 23.8106 4.00725 23.8106 3.85233 23.7748ZM2.16667 21.6667V4.33333L11.9167 11.9167L2.26958 22.2928C2.20892 22.0946 2.16667 21.8866 2.16667 21.6667ZM31.4167 2.16667L17.3333 13L3.25 2.16667H31.4167ZM30.3333 0H4.33333C1.94025 0 0 1.94025 0 4.33333V21.6667C0 24.0598 1.94025 26 4.33333 26H30.3333C32.7264 26 34.6667 24.0598 34.6667 21.6667V4.33333C34.6667 1.94025 32.7264 0 30.3333 0Z" fill="#EEF6FF"/>
</svg>
