<svg width="32" height="32" viewBox="0 0 32 32" fill="none" xmlns="http://www.w3.org/2000/svg">
<path fill-rule="evenodd" clip-rule="evenodd" d="M27.2061 4.65009C24.239 1.66342 20.1999 -0.0111694 15.99 5.60748e-05C7.24952 5.60748e-05 0.136094 7.11273 0.133053 15.8555C0.12932 18.638 0.859434 21.3722 2.24974 23.7825L0 31.9998L8.40595 29.795C10.7306 31.0617 13.3358 31.7254 15.9832 31.7254H15.99C24.729 31.7254 31.8431 24.6119 31.8462 15.8692C31.8598 11.6599 30.1889 7.62008 27.2061 4.65009ZM15.99 29.0438H15.9847C13.6243 29.0449 11.3071 28.4112 9.27573 27.2092L8.79447 26.924L3.80685 28.2325L5.13892 23.3665L4.82491 22.8678C3.5067 20.767 2.80928 18.3363 2.81314 15.8563C2.81314 8.59152 8.72528 2.67785 15.9954 2.67785C19.4913 2.67987 22.8433 4.07056 25.3138 6.54398C27.7844 9.0174 29.1712 12.371 29.1692 15.8669C29.1661 23.1339 23.2539 29.0438 15.99 29.0438ZM23.219 19.1727C22.8229 18.9742 20.875 18.0163 20.5116 17.8802C20.1481 17.7441 19.8843 17.6817 19.6205 18.0786C19.3567 18.4755 18.5972 19.3674 18.366 19.632C18.1349 19.8965 17.9038 19.9291 17.5075 19.7308C17.1114 19.5324 15.8349 19.1141 14.3212 17.7647C13.1434 16.7139 12.3443 15.4168 12.1162 15.0199C11.8882 14.623 12.0919 14.4116 12.2904 14.2109C12.4683 14.0338 12.6865 13.7486 12.8842 13.5168C13.0818 13.2849 13.1487 13.1207 13.2802 12.8561C13.4118 12.5915 13.3464 12.3604 13.2475 12.1619C13.1487 11.9635 12.3557 10.0133 12.0258 9.2203C11.7042 8.44782 11.378 8.55198 11.1347 8.53601C10.9066 8.52461 10.639 8.52233 10.3744 8.52233C9.96838 8.53295 9.58527 8.71265 9.31756 9.01806C8.95489 9.41493 7.93152 10.3729 7.93152 12.3231C7.93152 14.2733 9.35101 16.1573 9.54869 16.4219C9.74637 16.6865 12.3428 20.688 16.3155 22.4048C17.0533 22.723 17.8072 23.0021 18.5743 23.2411C19.5231 23.5452 20.3869 23.5004 21.0696 23.3985C21.8299 23.2845 23.4137 22.4397 23.7443 21.5144C24.0751 20.5892 24.0744 19.7954 23.9725 19.6304C23.8706 19.4654 23.6151 19.3742 23.219 19.1757V19.1727Z" fill="#EEF6FF"/>
</svg>
