<?xml version="1.0" encoding="UTF-8"?>
<svg id="Camada_1" data-name="Camada 1" xmlns="http://www.w3.org/2000/svg" viewBox="0 0 1920 666.9">
  <defs>
    <style>
      .cls-1 {
        fill: #ecefef;
      }

      .cls-2 {
        fill: #a2e259;
      }

      .cls-3 {
        fill: #a038f2;
      }
    </style>
  </defs>
  <path class="cls-3" d="M454.95,279.35h62.37l1.49-1.49,171.75-171.75-69.08-69.08c-5.66-5.66-14.83-5.66-20.48,0l-146.15,146.15c-8.49,8.49-22.24,8.49-30.73,0L278.03,37.09c-5.65-5.66-14.83-5.66-20.48,0l-69.03,69.03,173.24,173.24h93.2Z"/>
  <path class="cls-2" d="M268.68,279.35h-62.37l-1.49,1.49L33.07,452.59l69.08,69.08c5.66,5.66,14.83,5.66,20.48,0l146.15-146.15c8.49-8.49,22.24-8.49,30.73,0l146.1,146.1c5.65,5.66,14.83,5.66,20.48,0l69.03-69.03-173.24-173.24h-93.2Z"/>
  <path class="cls-1" d="M966.55,180.61l-63.46,208.95-63.55-208.95h-96.1l99.83,281.41c2.49,6.89,9.09,11.58,16.47,11.58h86.14c7.37,0,13.97-4.69,16.46-11.58l99.74-281.41h-95.53Z"/>
  <path class="cls-1" d="M1560.62,210.53c-21.49-22.02-50.5-33.03-86.85-33.03-20.71,0-39.75,5.07-57.22,15.2-17.57,10.14-31.37,23.33-41.5,39.41-9.79-17.48-23.42-31.02-40.72-40.45-17.3-9.43-37.04-14.15-59.06-14.15-18.52,0-35.21,3.58-49.89,10.75-14.68,7.16-26.56,16.86-35.65,29.18v-36.78h-44.93l-30.43.06c-7.99.01-14.46,6.5-14.46,14.48v260.94c0,9.65,7.82,17.47,17.47,17.47h72.35v-159.1c0-18.87,4.98-33.46,14.94-43.77,9.96-10.4,23.68-15.55,41.24-15.55s31.19,5.16,41.15,15.55c10.05,10.31,15.03,24.9,15.03,43.77v141.63c0,9.65,7.82,17.47,17.47,17.47h71.73v-159.1c0-18.87,4.98-33.46,14.94-43.77,10.05-10.4,23.77-15.55,41.24-15.55s31.28,5.16,41.24,15.55c9.96,10.31,14.94,24.9,14.94,43.77v141.63c0,9.65,7.82,17.47,17.47,17.47h71.82v-171.16c0-39.23-10.84-69.81-32.33-91.91"/>
  <path class="cls-1" d="M1745.7,85.09h-89.78v371c0,9.67,7.85,17.52,17.51,17.52h65.09c-8.62-13.98-13.69-30.54-13.69-48.15,0-22.11,7.85-42.41,20.87-58.29V85.09Z"/>
  <path class="cls-2" d="M1886.93,425.46c0,34.74-28.24,62.98-63.08,62.98s-62.98-28.24-62.98-62.98,28.24-63.08,62.98-63.08,63.08,28.33,63.08,63.08"/>
  <path class="cls-1" d="M1110.27,542.62c4.08-5.7,9.09-10.1,15.01-13.2,5.92-3.1,12.34-4.64,19.25-4.64,9.07,0,16.14,2.24,21.21,6.73,5.07,4.49,7.79,10.59,8.14,18.32h-10.1c-.27-5.3-2.22-9.45-5.86-12.46-3.63-3.01-8.55-4.51-14.74-4.51-7.63,0-14.34,2.58-20.13,7.74-5.79,5.16-9.54,12.5-11.24,22.02-.45,2.24-.67,4.8-.67,7.67,0,7.18,1.95,12.68,5.86,16.5,3.9,3.81,9.09,5.72,15.55,5.72s11.76-1.5,16.43-4.51c4.67-3.01,8.12-7.2,10.37-12.59h10.1c-3.05,7.54-7.94,13.6-14.68,18.18-6.73,4.58-14.59,6.87-23.56,6.87s-16.32-2.6-21.75-7.81c-5.43-5.21-8.14-12.34-8.14-21.41,0-2.78.27-5.66.81-8.62,1.35-7.63,4.06-14.3,8.15-20"/>
  <path class="cls-1" d="M1198.67,596.75c-4.67-2.47-8.28-5.97-10.84-10.5-2.56-4.53-3.84-9.85-3.84-15.96,0-8.26,1.88-15.86,5.65-22.82,3.77-6.96,9.02-12.47,15.75-16.56,6.73-4.08,14.23-6.13,22.49-6.13,6.1,0,11.49,1.23,16.16,3.7,4.67,2.47,8.3,5.97,10.9,10.5,2.6,4.53,3.91,9.85,3.91,15.96,0,8.35-1.93,15.98-5.79,22.89-3.86,6.91-9.14,12.41-15.82,16.49-6.69,4.08-14.16,6.13-22.42,6.13-6.1,0-11.49-1.23-16.16-3.7M1233.07,587.39c5.07-3.41,9.02-7.94,11.85-13.6,2.83-5.66,4.24-11.76,4.24-18.31,0-7.36-2.14-12.97-6.4-16.83-4.26-3.86-9.67-5.79-16.23-5.79s-12.05,1.71-17.03,5.12c-4.98,3.41-8.86,7.95-11.64,13.6-2.78,5.65-4.17,11.76-4.17,18.31,0,7.27,2.11,12.86,6.33,16.77,4.22,3.9,9.51,5.86,15.89,5.86s12.09-1.71,17.17-5.12"/>
  <path class="cls-1" d="M1387.52,530.57c4.44,4.04,6.66,9.96,6.66,17.77,0,2.42-.27,5.07-.81,7.94l-7.68,43.09h-9.29l7.54-42.01c.45-2.69.67-4.94.67-6.73,0-5.83-1.57-10.28-4.71-13.33-3.14-3.05-7.58-4.58-13.33-4.58-6.37,0-11.96,2.02-16.76,6.06-4.8,4.04-8.15,9.87-10.03,17.5l-7.81,43.09h-9.29l7.54-42.01c.45-2.69.67-4.94.67-6.73,0-5.83-1.57-10.28-4.71-13.33-3.14-3.05-7.54-4.58-13.2-4.58-6.82,0-12.7,2.22-17.64,6.66-4.94,4.44-8.21,10.84-9.83,19.19l-7.14,40.8h-9.43l12.93-73.52h9.42l-2.29,12.79c3.05-4.58,6.98-8.08,11.78-10.5,4.8-2.42,9.89-3.63,15.28-3.63,6.37,0,11.67,1.53,15.89,4.58s6.87,7.54,7.94,13.46c2.96-5.83,7.14-10.3,12.52-13.4,5.38-3.1,11.17-4.64,17.37-4.64,7.36,0,13.26,2.02,17.71,6.06"/>
  <path class="cls-1" d="M1439.23,529.69c5.7-3.28,12-4.91,18.91-4.91,8.89,0,16,2.62,21.35,7.88,5.34,5.25,8.01,12.41,8.01,21.48,0,2.6-.27,5.38-.81,8.35-1.35,7.54-4.04,14.18-8.08,19.93-4.04,5.75-9,10.19-14.88,13.33-5.88,3.14-12.18,4.71-18.92,4.71s-12.61-1.64-17.1-4.91c-4.49-3.28-7.5-7.38-9.02-12.32l-8.88,50.9h-9.43l19.12-108.26h9.42l-2.83,16.16c3.05-4.94,7.43-9.04,13.13-12.32M1477.8,555.61c0-7.09-2.09-12.63-6.26-16.63-4.18-3.99-9.68-5.99-16.5-5.99-5.03,0-9.83,1.21-14.41,3.63-4.58,2.43-8.48,5.88-11.71,10.37-3.23,4.49-5.38,9.7-6.46,15.62-.45,2.51-.67,4.76-.67,6.73,0,7,2.11,12.57,6.33,16.7,4.22,4.13,9.69,6.19,16.42,6.19,5.2,0,10.08-1.19,14.61-3.57,4.53-2.38,8.39-5.83,11.58-10.37,3.19-4.53,5.32-9.81,6.39-15.82.45-2.69.67-4.98.67-6.87"/>
  <path class="cls-1" d="M1507.69,542.62c4.04-5.7,9-10.1,14.88-13.19,5.88-3.1,12.19-4.64,18.92-4.64s12.75,1.61,17.24,4.85c4.49,3.23,7.4,7.36,8.75,12.39l2.83-16.16h9.43l-12.93,73.52h-9.42l2.83-16.29c-3.05,5.03-7.43,9.18-13.13,12.46-5.7,3.28-12.05,4.91-19.05,4.91-5.83,0-10.95-1.21-15.35-3.63-4.4-2.42-7.81-5.86-10.23-10.3-2.42-4.45-3.63-9.67-3.63-15.69,0-2.6.27-5.39.81-8.35,1.35-7.54,4.04-14.16,8.08-19.86M1564.52,555.88c0-7-2.11-12.57-6.33-16.7-4.22-4.13-9.69-6.19-16.42-6.19-5.21,0-10.08,1.17-14.61,3.5-4.53,2.33-8.37,5.72-11.51,10.16s-5.25,9.72-6.33,15.82c-.45,2.7-.67,4.98-.67,6.87,0,7.09,2.09,12.68,6.26,16.77s9.63,6.13,16.36,6.13c5.03,0,9.85-1.21,14.47-3.63,4.62-2.42,8.53-5.88,11.71-10.37,3.19-4.49,5.32-9.7,6.39-15.62.45-2.51.67-4.76.67-6.73"/>
  <path class="cls-1" d="M1654.26,530.64c4.53,4.08,6.8,10.03,6.8,17.84,0,2.87-.22,5.47-.67,7.81l-7.68,43.09h-9.29l7.4-42.01c.36-2.06.54-4.26.54-6.6,0-5.92-1.62-10.41-4.85-13.46-3.23-3.05-7.76-4.58-13.6-4.58-7.09,0-13.15,2.24-18.18,6.73-5.03,4.49-8.3,11.09-9.83,19.79v-.4l-7.13,40.53h-9.43l12.93-73.52h9.42l-2.29,12.66c3.14-4.49,7.14-7.95,11.98-10.37,4.85-2.42,10.1-3.63,15.76-3.63,7.54,0,13.57,2.04,18.11,6.13"/>
  <polygon class="cls-1" points="1688.26 525.86 1702.13 588.2 1737.27 525.86 1747.1 525.86 1684.49 633.98 1674.53 633.98 1694.99 598.84 1677.76 525.86 1688.26 525.86"/>
</svg>